<svg width="128" height="128" viewBox="0 0 128 128" fill="none" xmlns="http://www.w3.org/2000/svg">
<path fill-rule="evenodd" clip-rule="evenodd" d="M93.864 11.5783C94.5529 10.43 94.9489 9.08598 94.9489 7.64948C94.9489 3.42479 91.5236 0 87.2983 0C83.72 0 80.7155 2.45629 79.8793 5.77454H48.1207C47.2845 2.45629 44.2799 0 40.7016 0C36.4764 0 33.0511 3.42479 33.0511 7.64948C33.0511 9.04008 33.4222 10.344 34.0708 11.4677L11.4728 34.0683C10.3482 33.4185 9.04278 33.0466 7.65052 33.0466C3.42526 33.0466 0 36.4714 0 40.6961C0 44.276 2.45943 47.2815 5.78102 48.1156V80.4087C2.45943 81.2428 0 84.2483 0 87.8282C0 92.0529 3.42526 95.4777 7.65052 95.4777C9.23039 95.4777 10.6984 94.9988 11.9173 94.1784L34.1485 116.404C33.4532 117.556 33.0532 118.907 33.0532 120.35C33.0532 124.575 36.4784 128 40.7037 128C44.3044 128 47.324 125.513 48.1382 122.163H79.8682C80.6885 125.504 83.7039 127.983 87.2983 127.983C91.5236 127.983 94.9489 124.558 94.9489 120.333C94.9489 118.885 94.5467 117.532 93.8479 116.377L116.062 94.1646C117.285 94.9935 118.761 95.4777 120.349 95.4777C124.575 95.4777 128 92.0529 128 87.8282C128 84.2334 125.52 81.2178 122.177 80.3984V48.1259C125.52 47.3065 128 44.2909 128 40.6961C128 36.4714 124.575 33.0466 120.349 33.0466C118.911 33.0466 117.566 33.4433 116.417 34.1332L93.864 11.5783ZM79.8929 9.57773C80.7477 12.8689 83.7392 15.299 87.2983 15.299C88.6993 15.299 90.0124 14.9224 91.1418 14.2651L113.732 36.8542C113.075 37.9832 112.699 39.2957 112.699 40.6961C112.699 44.2092 115.068 47.1692 118.295 48.0667V80.4576C115.068 81.355 112.699 84.315 112.699 87.8282C112.699 89.0534 112.987 90.2113 113.499 91.2379L91.0632 113.672C89.9517 113.043 88.667 112.684 87.2983 112.684C83.784 112.684 80.823 115.053 79.9262 118.281H48.071C47.1684 115.062 44.2118 112.701 40.7037 112.701C39.3092 112.701 38.0018 113.074 36.8759 113.726L14.4624 91.3139C14.9985 90.2685 15.301 89.0837 15.301 87.8282C15.301 84.2737 12.8764 81.2854 9.59053 80.4268V48.0975C12.8764 47.2388 15.301 44.2506 15.301 40.6961C15.301 39.2659 14.9085 37.9273 14.2252 36.7822L36.7863 14.2227C37.9317 14.9062 39.2708 15.299 40.7016 15.299C44.2608 15.299 47.2522 12.8689 48.107 9.57773H79.8929ZM10.7045 40.6765C10.7045 42.3662 9.33466 43.736 7.6449 43.736C5.95514 43.736 4.58532 42.3662 4.58532 40.6765C4.58532 38.9867 5.95514 37.6169 7.6449 37.6169C9.33466 37.6169 10.7045 38.9867 10.7045 40.6765ZM7.6449 91.0258C9.33466 91.0258 10.7045 89.656 10.7045 87.9662C10.7045 86.2765 9.33466 84.9067 7.6449 84.9067C5.95514 84.9067 4.58532 86.2765 4.58532 87.9662C4.58532 89.656 5.95514 91.0258 7.6449 91.0258ZM43.7415 120.22C43.7415 121.91 42.3717 123.28 40.6819 123.28C38.9921 123.28 37.6223 121.91 37.6223 120.22C37.6223 118.53 38.9921 117.161 40.6819 117.161C42.3717 117.161 43.7415 118.53 43.7415 120.22ZM87.1723 123.28C88.8621 123.28 90.2319 121.91 90.2319 120.22C90.2319 118.53 88.8621 117.161 87.1723 117.161C85.4826 117.161 84.1128 118.53 84.1128 120.22C84.1128 121.91 85.4826 123.28 87.1723 123.28ZM123.269 87.9662C123.269 89.656 121.899 91.0258 120.209 91.0258C118.52 91.0258 117.15 89.656 117.15 87.9662C117.15 86.2765 118.52 84.9067 120.209 84.9067C121.899 84.9067 123.269 86.2765 123.269 87.9662ZM120.209 43.736C121.899 43.736 123.269 42.3662 123.269 40.6765C123.269 38.9867 121.899 37.6169 120.209 37.6169C118.52 37.6169 117.15 38.9867 117.15 40.6765C117.15 42.3662 118.52 43.736 120.209 43.736ZM90.2319 7.6449C90.2319 9.33466 88.8621 10.7045 87.1723 10.7045C85.4826 10.7045 84.1128 9.33466 84.1128 7.6449C84.1128 5.95514 85.4826 4.58532 87.1723 4.58532C88.8621 4.58532 90.2319 5.95514 90.2319 7.6449ZM40.6819 10.7045C42.3717 10.7045 43.7415 9.33465 43.7415 7.64489C43.7415 5.95514 42.3717 4.58532 40.6819 4.58532C38.9921 4.58532 37.6223 5.95514 37.6223 7.64489C37.6223 9.33465 38.9921 10.7045 40.6819 10.7045Z" fill="white"/>
<path d="M77.1645 56.7411L77.1556 53.1016L100.127 43.6641L77.0842 34.3693L77.0753 30.7477L105.069 42.1031L105.086 45.127L77.1645 56.7411Z" fill="white"/>
<path d="M56.183 58.9624H59.3142L72.0084 32.2555H68.8237L56.183 58.9624Z" fill="white"/>
<path d="M51.0625 56.6786V53.0392L28.0559 43.6819L51.0625 34.3069V30.6764L23.0959 42.1388V45.1627L51.0625 56.6786Z" fill="white"/>
<path d="M103.213 50.4256H100.332V53.7533H103.213V50.4256Z" fill="white"/>
<path d="M101.126 56.3931H102.535L103.213 69.9874H100.198L101.126 56.3931Z" fill="white"/>
<path fill-rule="evenodd" clip-rule="evenodd" d="M37.9894 49.2232H40.7216V60.5387L63.8038 68.0405L89.3122 60.5387V49.2232H92.039V88.1854L77.4706 100.998H50.8802L37.9894 88.1854V49.2232ZM40.7217 86.9397V63.4072L63.8038 70.9035L89.3122 63.4072V86.9397L76.0498 98.6049H52.3447L40.7217 86.9397Z" fill="white"/>
<path fill-rule="evenodd" clip-rule="evenodd" d="M51.8184 82.9083C55.0264 82.9083 57.627 80.3077 57.627 77.0997C57.627 73.8917 55.0264 71.2911 51.8184 71.2911C48.6104 71.2911 46.0098 73.8917 46.0098 77.0997C46.0098 80.3077 48.6104 82.9083 51.8184 82.9083ZM51.7995 80.4618C53.6667 80.4618 55.1804 78.9481 55.1804 77.0808C55.1804 75.2136 53.6667 73.6999 51.7995 73.6999C49.9322 73.6999 48.4186 75.2136 48.4186 77.0808C48.4186 78.9481 49.9322 80.4618 51.7995 80.4618Z" fill="white"/>
<path fill-rule="evenodd" clip-rule="evenodd" d="M78.2987 82.9083C81.5067 82.9083 84.1073 80.3077 84.1073 77.0997C84.1073 73.8917 81.5067 71.2911 78.2987 71.2911C75.0907 71.2911 72.4901 73.8917 72.4901 77.0997C72.4901 80.3077 75.0907 82.9083 78.2987 82.9083ZM78.2798 80.4618C80.1471 80.4618 81.6607 78.9481 81.6607 77.0808C81.6607 75.2136 80.1471 73.6999 78.2798 73.6999C76.4126 73.6999 74.8989 75.2136 74.8989 77.0808C74.8989 78.9481 76.4126 80.4618 78.2798 80.4618Z" fill="white"/>
<path d="M74.8094 88.6665C74.8094 89.3445 74.5061 89.8887 74.1225 89.8887H55.9153C55.5317 89.8887 55.2284 89.3445 55.2284 88.6665C55.2284 87.9885 55.5317 87.4443 55.9153 87.4443H74.1225C74.5061 87.4443 74.8094 87.9885 74.8094 88.6665Z" fill="white"/>
<circle cx="76.9918" cy="88.6738" r="1.53114" fill="white"/>
<ellipse cx="52.9796" cy="88.6738" rx="1.53114" ry="1.53114" fill="white"/>
</svg>
